HIERARCHY
ROOT Hip
{
	OFFSET 0.000000 0.000000 0.000000 
	CHANNELS 6 Xposition Yposition Zposition Xrotation Yrotation Zrotation
	JOINT LowerSpine
	{
		OFFSET 0.000000 8.623500 -5.300200 
		CHANNELS 3 Xrotation Yrotation Zrotation
		JOINT MiddleSpine
		{
			OFFSET 11.218800 0.000000 0.000000 
			CHANNELS 3 Xrotation Yrotation Zrotation
			JOINT Chest
			{
				OFFSET 15.808300 0.000000 0.000000 
				CHANNELS 3 Xrotation Yrotation Zrotation
				JOINT Neck
				{
					OFFSET 26.517200 -0.618600 0.000000 
					CHANNELS 3 Xrotation Yrotation Zrotation
					JOINT Head
					{
						OFFSET 9.179000 0.000000 0.000000 
						CHANNELS 3 Xrotation Yrotation Zrotation
						End Site
						{
							OFFSET 20.397900 0.000000 0.000000 
						}
					}
				}
				JOINT RClavicle
				{
					OFFSET 24.477400 0.000000 3.263700 
					CHANNELS 3 Xrotation Yrotation Zrotation
					JOINT RShoulder
					{
						OFFSET -16.114300 -4.079600 1.019900 
						CHANNELS 3 Xrotation Yrotation Zrotation
						JOINT RForearm
						{
							OFFSET -32.381599 0.000000 0.204000 
							CHANNELS 3 Xrotation Yrotation Zrotation
							JOINT RHand
							{
								OFFSET -27.282101 0.000000 0.000000 
								CHANNELS 3 Xrotation Yrotation Zrotation
								End Site
								{
									OFFSET -16.318300 -1.019900 0.000000 
								}
							}
						}
					}
				}
				JOINT LClavicle
				{
					OFFSET 24.477400 0.000000 -3.263700 
					CHANNELS 3 Xrotation Yrotation Zrotation
					JOINT LShoulder
					{
						OFFSET -16.114300 -4.079600 -1.019900 
						CHANNELS 3 Xrotation Yrotation Zrotation
						JOINT LForearm
						{
							OFFSET -32.381599 0.000000 -0.204000 
							CHANNELS 3 Xrotation Yrotation Zrotation
							JOINT LHand
							{
								OFFSET -27.282101 0.000000 0.000000 
								CHANNELS 3 Xrotation Yrotation Zrotation
								End Site
								{
									OFFSET -16.318300 -1.019900 0.000000 
								}
							}
						}
					}
				}
			}
		}
	}
	JOINT RThigh
	{
		OFFSET -9.179000 0.463000 0.000000 
		CHANNELS 3 Xrotation Yrotation Zrotation
		JOINT RShin
		{
			OFFSET 44.569302 0.000000 -0.509900 
			CHANNELS 3 Xrotation Yrotation Zrotation
			JOINT RFoot
			{
				OFFSET 0.000000 -46.216499 -0.418200 
				CHANNELS 3 Xrotation Yrotation Zrotation
				JOINT RToe
				{
					OFFSET 0.000000 -4.064300 12.601800 
					CHANNELS 3 Xrotation Yrotation Zrotation
					End Site
					{
						OFFSET 6.998200 0.000000 0.000000 
					}
				}
			}
		}
	}
	JOINT LThigh
	{
		OFFSET 9.179000 0.463000 0.000000 
		CHANNELS 3 Xrotation Yrotation Zrotation
		JOINT LShin
		{
			OFFSET 44.569302 0.000000 0.509900 
			CHANNELS 3 Xrotation Yrotation Zrotation
			JOINT LFoot
			{
				OFFSET 0.000000 -46.216499 0.418200 
				CHANNELS 3 Xrotation Yrotation Zrotation
				JOINT LToe
				{
					OFFSET 0.000000 -4.064300 -12.601800 
					CHANNELS 3 Xrotation Yrotation Zrotation
					End Site
					{
						OFFSET 6.998200 0.000000 0.000000 
					}
				}
			}
		}
	}
}
MOTION
Frames: 8
Frame Time: 0.040000
0.000000 96.240799 0.000000 0.000000 0.000000 0.000000 -89.999992 -90.000000 0.000000 0.000000 0.000000 0.000000 0.000000 0.000000 0.000000 0.000000 0.000000 0.000000 0.000000 0.000000 0.000000 89.999992 0.000003 -89.999992 0.129889 -2.857029 4.156837 0.255388 4.965908 -5.884634 0.000000 0.000000 0.000000 -89.999992 -0.000003 -89.999992 -0.129889 2.857029 4.156894 -0.255388 -4.965908 -5.884634 0.000000 0.000000 0.000000 -89.999992 90.000000 0.000000 89.999992 -0.000003 89.999992 0.000000 0.000000 0.000000 180.000000 90.000000 0.000000 -89.999992 90.000000 0.000000 -90.000000 -0.000003 89.999992 0.000000 0.000000 0.000000 180.000000 -90.000000 0.000000 
-32.937302 94.286797 -209.331406 2.739035 3.380267 -3.558994 -89.999992 -90.000000 0.000000 0.321697 0.037076 0.524811 1.070897 0.135069 1.748537 0.000000 0.000000 0.000000 0.000000 0.000000 0.000000 89.998016 -0.361900 -85.138046 24.024929 42.955841 72.651337 1.806538 19.314569 -6.213449 0.000000 0.000000 0.000000 -90.000343 -0.006815 -90.091667 -21.131069 -47.870750 71.909393 -1.738110 -18.719290 -6.191137 0.000000 0.000000 0.000000 -85.781761 80.764053 4.489023 89.977997 2.507430 89.997940 -8.010126 2.123405 1.066907 175.450897 90.000000 0.000000 -115.227402 76.289124 19.738091 -89.862221 -18.215281 90.002899 13.160170 -2.557416 1.590645 181.369797 -90.000000 0.000000 
-32.902599 94.134102 -209.115997 2.679387 4.263114 -3.457187 -89.999992 -90.000000 0.000000 0.227915 -0.023873 0.362637 0.760256 -0.073957 1.209152 0.000000 0.000000 0.000000 0.000000 0.000000 0.000000 89.999107 -0.389102 -84.772346 24.569420 41.763569 71.837532 1.910461 20.210350 -6.248589 0.000000 0.000000 0.000000 -90.000526 -0.010888 -90.146439 -20.256451 -47.912628 71.863579 -1.782955 -19.109909 -6.205673 0.000000 0.000000 0.000000 -86.329941 80.667740 5.241814 89.976967 2.622745 89.997871 -8.573594 1.895303 1.008335 175.713196 90.000000 0.000000 -120.448303 77.235023 20.434851 -89.794296 -25.155060 90.017647 12.671170 0.057115 -0.036817 183.887802 -90.000000 0.000000 
-32.887798 93.976799 -208.626205 2.536146 5.300866 -3.316016 -89.999992 -90.000000 0.000000 0.163065 -0.075786 0.213513 0.544524 -0.250264 0.712432 0.000000 0.000000 0.000000 0.000000 0.000000 0.000000 90.000092 -0.410351 -84.486679 24.924141 40.874290 71.567657 1.923645 20.323259 -6.253155 0.000000 0.000000 0.000000 -90.000717 -0.014738 -90.198196 -19.859329 -48.218819 71.397346 -1.842946 -19.629560 -6.225571 0.000000 0.000000 0.000000 -86.036949 80.551163 5.706960 89.981743 2.091568 89.998222 -8.863574 1.185529 0.660955 175.879501 90.000000 0.000000 -130.757996 78.498253 26.259001 -89.734741 -30.755680 90.037201 11.881060 2.078515 -1.246953 185.728500 -90.000000 0.000000 
-32.874802 93.743103 -207.734406 2.478512 6.594398 -3.049297 -89.999992 -90.000000 0.000000 0.133234 -0.132868 0.073627 0.443647 -0.442155 0.245539 0.000000 0.000000 0.000000 0.000000 0.000000 0.000000 90.001022 -0.428653 -84.240540 25.474390 39.607601 71.722733 1.922442 20.312960 -6.252737 0.000000 0.000000 0.000000 -90.000328 -0.006640 -90.089317 -19.192150 -48.955090 70.648331 -1.817721 -19.411461 -6.217141 0.000000 0.000000 0.000000 -85.562408 80.461510 6.350699 89.990097 1.159248 89.998947 -9.194672 0.230789 0.167791 176.098099 90.000000 0.000000 -142.542496 79.799271 34.479809 -89.709137 -33.005569 90.047363 11.617720 2.740508 -1.587489 184.835007 -90.000000 0.000000 
-32.811100 93.472900 -206.297302 2.571958 8.429364 -2.677177 -89.999992 -90.000000 0.000000 0.121612 -0.191425 -0.045360 0.398277 -0.638004 -0.156290 0.000000 0.000000 0.000000 0.000000 0.000000 0.000000 90.002190 -0.449868 -83.955116 26.169220 38.066280 72.434898 1.868042 19.845940 -6.234060 0.000000 0.000000 0.000000 -89.999046 0.020990 -89.717796 -18.100340 -50.387920 69.455917 -1.699716 -18.383410 -6.178921 0.000000 0.000000 0.000000 -84.720886 80.354622 7.161973 90.004921 -0.489871 90.000557 -9.008362 -1.108266 -0.533427 175.784607 90.000000 0.000000 -153.300400 81.558746 42.428150 -89.719688 -32.091511 90.043053 10.992930 3.307115 -1.869199 181.826096 -90.000000 0.000000 
-32.714298 93.248901 -204.860397 3.124419 10.155970 -2.319010 -89.999992 -90.000000 0.000000 0.095101 -0.225485 -0.133988 0.307696 -0.751902 -0.452061 0.000000 0.000000 0.000000 0.000000 0.000000 0.000000 90.003593 -0.473050 -83.643188 26.154640 37.810459 73.257248 1.610427 17.597210 -6.151357 0.000000 0.000000 0.000000 -89.997437 0.063642 -89.144547 -17.667509 -50.993820 68.029648 -1.698985 -18.377010 -6.178691 0.000000 0.000000 0.000000 -84.202789 80.323334 7.617827 90.015907 -1.707866 90.002022 -8.892968 -2.346933 -1.187919 175.602493 90.000000 0.000000 -165.326599 83.981529 51.898472 -89.756821 -28.738760 90.029266 8.105774 2.089607 -1.059631 180.356598 -90.000000 0.000000 
-32.555801 93.083900 -203.218506 3.880939 11.252760 -1.803431 -89.999992 -90.000000 0.000000 0.041518 -0.219249 -0.188308 0.094614 -0.703070 -0.630480 0.000000 0.000000 0.000000 0.000000 0.000000 0.000000 90.004791 -0.491284 -83.397774 25.564650 38.331692 74.120621 1.237015 14.236640 -6.048906 0.000000 0.000000 0.000000 -89.996170 0.109910 -88.522881 -18.033300 -50.272930 67.148613 -1.737968 -18.718060 -6.191092 0.000000 0.000000 0.000000 -84.623917 80.580742 7.498562 90.001862 -0.148374 90.000191 -9.578609 -3.360994 -1.736959 174.454697 90.000000 0.000000 167.398300 85.626419 77.547188 -89.816490 -22.949711 90.011887 4.133660 1.369769 -0.545712 180.097397 -90.000000 0.000000 
